<?xml version="1.0" encoding="utf-8"?>
<!-- Generator: Adobe Illustrator 16.0.0, SVG Export Plug-In . SVG Version: 6.00 Build 0)  -->
<!DOCTYPE svg PUBLIC "-//W3C//DTD SVG 1.1//EN" "http://www.w3.org/Graphics/SVG/1.1/DTD/svg11.dtd">
<svg version="1.1" id="Layer_1" xmlns="http://www.w3.org/2000/svg" xmlns:xlink="http://www.w3.org/1999/xlink" x="0px" y="0px"
	 width="196.258px" height="196.258px" viewBox="297.95 207.792 196.258 196.258"
	 enable-background="new 297.95 207.792 196.258 196.258" xml:space="preserve">
<g id="ColorD" display="none">
	<g display="inline">
		<path fill="#23325A" d="M357.826,213.811l1.742,4.436c1.426-0.634,2.851-0.792,4.277-0.792c2.218,0,4.277,0.633,6.019,1.9
			c1.743,1.109,3.327,2.852,4.119,5.069c0.634,1.426,0.792,2.852,0.792,4.277c0,2.218-0.634,4.277-1.901,6.019
			c-1.109,1.743-2.851,3.327-5.069,4.119c-1.425,0.634-2.851,0.792-4.277,0.792c-2.217,0-4.277-0.633-6.019-1.901
			c-1.742-1.109-3.326-2.851-4.118-5.069c-0.634-1.425-0.792-2.851-0.792-4.277c0-2.217,0.633-4.276,1.9-6.019
			c1.109-1.742,2.852-3.326,5.069-4.118L357.826,213.811l-1.743-4.435c-3.96,1.584-7.128,4.435-9.345,7.762
			c-2.218,3.326-3.327,7.286-3.327,11.246c0,2.693,0.475,5.386,1.584,7.92c1.584,3.96,4.435,7.128,7.762,9.345
			c3.326,2.218,7.286,3.327,11.246,3.327c2.693,0,5.386-0.475,7.92-1.584c3.96-1.584,7.128-4.435,9.345-7.762
			c2.218-3.326,3.327-7.287,3.327-11.247c0-2.692-0.475-5.385-1.584-7.92c-1.584-3.96-4.435-7.128-7.762-9.346
			c-3.326-2.217-7.286-3.326-11.247-3.326c-2.692,0-5.385,0.475-7.92,1.584L357.826,213.811z"/>
		<path fill="#23325A" d="M422.136,368.885l1.742,4.436c1.426-0.634,2.852-0.792,4.277-0.792c2.218,0,4.276,0.633,6.02,1.9
			c1.742,1.108,3.326,2.852,4.118,5.069c0.634,1.425,0.792,2.851,0.792,4.276c0,2.218-0.634,4.276-1.901,6.02
			c-1.108,1.742-2.851,3.326-5.068,4.118c-1.426,0.634-2.852,0.792-4.277,0.792c-2.217,0-4.276-0.634-6.019-1.901
			c-1.743-1.108-3.327-2.851-4.118-5.068c-0.634-1.426-0.793-2.852-0.793-4.276c0-2.218,0.635-4.277,1.901-6.02
			c1.108-1.742,2.852-3.326,5.068-4.118L422.136,368.885l-1.742-4.436c-3.96,1.584-7.128,4.436-9.346,7.762
			s-3.326,7.287-3.326,11.247c0,2.692,0.476,5.385,1.584,7.92c1.584,3.96,4.435,7.128,7.762,9.346
			c3.326,2.217,7.286,3.326,11.246,3.326c2.693,0,5.386-0.476,7.92-1.584c3.96-1.584,7.128-4.436,9.346-7.762
			s3.326-7.286,3.326-11.246c0-2.693-0.475-5.386-1.584-7.921c-1.584-3.96-4.435-7.128-7.762-9.345
			c-3.326-2.218-7.286-3.327-11.246-3.327c-2.692,0-5.386,0.476-7.92,1.584L422.136,368.885z"/>
		<path fill="#23325A" d="M426.413,367.143l-51.48-124.502c-0.95-2.376-3.801-3.644-6.177-2.535
			c-2.376,0.951-3.644,3.802-2.535,6.178l51.48,124.344c0.95,2.376,3.801,3.644,6.177,2.534
			C426.255,372.369,427.521,369.519,426.413,367.143"/>
		<path fill="#23325A" d="M333.115,332.136l-4.435,1.742c0.633,1.426,0.792,2.852,0.792,4.277c0,2.218-0.634,4.276-1.901,6.02
			c-1.109,1.742-2.851,3.326-5.069,4.118c-1.426,0.634-2.851,0.792-4.277,0.792c-2.218,0-4.277-0.634-6.019-1.901
			c-1.743-1.108-3.327-2.851-4.119-5.068c-0.633-1.426-0.792-2.852-0.792-4.276c0-2.218,0.634-4.277,1.901-6.02
			c1.109-1.742,2.851-3.326,5.069-4.118c1.426-0.634,2.851-0.792,4.277-0.792c2.217,0,4.277,0.633,6.019,1.9
			c1.743,1.108,3.327,2.852,4.119,5.068L333.115,332.136l4.435-1.742c-1.584-3.96-4.435-7.128-7.761-9.346
			c-3.327-2.218-7.287-3.326-11.247-3.326c-2.693,0-5.386,0.476-7.92,1.584c-3.96,1.584-7.128,4.436-9.346,7.762
			s-3.327,7.286-3.327,11.246c0,2.693,0.476,5.386,1.584,7.92c1.584,3.96,4.436,7.128,7.762,9.346
			c3.327,2.218,7.287,3.326,11.247,3.326c2.693,0,5.386-0.475,7.92-1.584c3.96-1.584,7.128-4.435,9.346-7.762
			c2.217-3.326,3.326-7.286,3.326-11.246c0-2.692-0.475-5.386-1.584-7.92L333.115,332.136z"/>
		<path fill="#23325A" d="M334.857,336.413l124.344-51.48c2.376-0.95,3.644-3.801,2.535-6.177c-0.951-2.376-3.802-3.644-6.178-2.535
			l-124.344,51.48c-2.376,0.95-3.643,3.801-2.534,6.177C329.63,336.254,332.481,337.521,334.857,336.413"/>
		<path fill="#23325A" d="M488.188,267.826l-4.435,1.742c0.634,1.426,0.792,2.851,0.792,4.277c0,2.218-0.634,4.277-1.901,6.019
			c-1.108,1.743-2.851,3.327-5.068,4.119c-1.426,0.634-2.852,0.792-4.277,0.792c-2.217,0-4.276-0.634-6.019-1.901
			c-1.742-1.109-3.327-2.851-4.119-5.069c-0.633-1.425-0.792-2.851-0.792-4.277c0-2.217,0.634-4.277,1.901-6.019
			c1.108-1.742,2.852-3.326,5.068-4.118c1.426-0.634,2.852-0.792,4.277-0.792c2.218,0,4.276,0.633,6.019,1.9
			c1.743,1.109,3.327,2.852,4.119,5.069L488.188,267.826l4.436-1.743c-1.584-3.96-4.436-7.128-7.762-9.345
			c-3.326-2.218-7.286-3.327-11.246-3.327c-2.693,0-5.386,0.475-7.92,1.584c-3.96,1.584-7.128,4.435-9.346,7.762
			c-2.218,3.326-3.326,7.286-3.326,11.246c0,2.693,0.475,5.386,1.584,7.92c1.584,3.96,4.435,7.128,7.761,9.345
			c3.327,2.218,7.287,3.327,11.247,3.327c2.692,0,5.386-0.475,7.92-1.584c3.96-1.584,7.128-4.435,9.346-7.762
			c2.218-3.326,3.326-7.286,3.326-11.247c0-2.692-0.476-5.385-1.584-7.92L488.188,267.826z"/>
		<path fill="#FFFFFF" d="M333.115,279.864l-4.435-1.742c-0.951,2.218-2.376,3.802-4.119,5.069c-1.742,1.109-3.96,1.901-6.019,1.901
			c-1.426,0-2.851-0.317-4.277-0.792c-2.218-0.951-3.802-2.376-5.069-4.119c-1.109-1.742-1.901-3.96-1.901-6.019
			c0-1.426,0.317-2.851,0.792-4.277c0.951-2.218,2.376-3.802,4.119-5.069c1.742-1.109,3.96-1.901,6.019-1.901
			c1.426,0,2.851,0.317,4.277,0.792c2.218,0.951,3.802,2.376,5.069,4.119c1.109,1.742,1.901,3.96,1.901,6.019
			c0,1.426-0.317,2.851-0.792,4.277L333.115,279.864l4.435,1.743c1.109-2.535,1.584-5.227,1.584-7.92
			c0-4.119-1.267-7.92-3.326-11.247c-2.218-3.326-5.386-6.019-9.346-7.762c-2.534-1.109-5.227-1.584-7.92-1.584
			c-4.119,0-7.92,1.268-11.247,3.327c-3.326,2.217-6.019,5.386-7.762,9.346c-1.108,2.534-1.584,5.227-1.584,7.92
			c0,4.118,1.268,7.92,3.327,11.246c2.218,3.327,5.386,6.02,9.346,7.762c2.534,1.109,5.227,1.584,7.92,1.584
			c4.118,0,7.92-1.267,11.247-3.326c3.326-2.218,6.019-5.386,7.761-9.346L333.115,279.864z"/>
		<path fill="#FFFFFF" d="M331.214,284.299l124.344,51.48c2.376,0.95,5.227-0.158,6.178-2.534c0.95-2.376-0.159-5.228-2.535-6.178
			l-124.344-51.48c-2.376-0.951-5.227,0.158-6.177,2.534C327.729,280.498,328.838,283.349,331.214,284.299"/>
		<path fill="#FFFFFF" d="M488.188,344.175l-4.435-1.743c-0.95,2.218-2.376,3.802-4.119,5.069c-1.742,1.108-3.96,1.9-6.019,1.9
			c-1.426,0-2.852-0.316-4.277-0.792c-2.217-0.95-3.801-2.376-5.068-4.118c-1.109-1.742-1.901-3.96-1.901-6.02
			c0-1.425,0.317-2.851,0.792-4.276c0.951-2.218,2.377-3.802,4.119-5.069c1.742-1.108,3.96-1.9,6.019-1.9
			c1.426,0,2.852,0.316,4.277,0.792c2.218,0.95,3.802,2.376,5.068,4.118c1.109,1.742,1.901,3.96,1.901,6.02
			c0,1.426-0.317,2.852-0.792,4.276L488.188,344.175l4.436,1.742c1.108-2.534,1.584-5.228,1.584-7.92
			c0-4.119-1.268-7.92-3.326-11.247c-2.218-3.326-5.386-6.019-9.346-7.761c-2.534-1.109-5.228-1.584-7.92-1.584
			c-4.118,0-7.92,1.267-11.247,3.326c-3.326,2.218-6.019,5.386-7.761,9.346c-1.109,2.534-1.584,5.227-1.584,7.92
			c0,4.118,1.267,7.92,3.326,11.246c2.218,3.326,5.386,6.02,9.346,7.762c2.534,1.108,5.227,1.584,7.92,1.584
			c4.118,0,7.92-1.268,11.246-3.326c3.326-2.218,6.02-5.386,7.762-9.346L488.188,344.175z"/>
		<path fill="#23325A" d="M434.175,213.811l-1.743,4.436c2.218,0.95,3.802,2.376,5.069,4.118c1.108,1.743,1.9,3.96,1.9,6.019
			c0,1.426-0.316,2.852-0.792,4.277c-0.95,2.218-2.376,3.802-4.118,5.069c-1.742,1.109-3.96,1.901-6.02,1.901
			c-1.425,0-2.851-0.317-4.276-0.792c-2.218-0.95-3.802-2.376-5.068-4.119c-1.109-1.742-1.901-3.96-1.901-6.019
			c0-1.425,0.317-2.851,0.792-4.277c0.95-2.217,2.376-3.801,4.118-5.069c1.742-1.108,3.96-1.9,6.02-1.9
			c1.426,0,2.852,0.316,4.276,0.792L434.175,213.811l1.742-4.435c-2.534-1.109-5.228-1.584-7.92-1.584
			c-4.119,0-7.921,1.267-11.247,3.326c-3.326,2.218-6.019,5.386-7.762,9.346c-1.108,2.535-1.584,5.228-1.584,7.92
			c0,4.119,1.268,7.92,3.327,11.247c2.218,3.327,5.386,6.019,9.345,7.762c2.535,1.109,5.228,1.584,7.921,1.584
			c4.118,0,7.92-1.267,11.246-3.327c3.326-2.217,6.02-5.385,7.762-9.345c1.108-2.535,1.584-5.228,1.584-7.92
			c0-4.118-1.268-7.92-3.326-11.246c-2.218-3.327-5.386-6.02-9.346-7.762L434.175,213.811z"/>
		<path fill="#23325A" d="M374.299,370.785l51.48-124.344c0.95-2.376-0.158-5.227-2.534-6.177c-2.376-0.951-5.228,0.158-6.178,2.534
			l-51.48,124.344c-0.951,2.376,0.158,5.227,2.534,6.178C370.498,374.271,373.349,373.161,374.299,370.785"/>
		<path fill="#23325A" d="M369.864,368.885l-1.742,4.436c2.218,0.95,3.802,2.376,5.069,4.118c1.109,1.742,1.901,3.96,1.901,6.02
			c0,1.425-0.317,2.851-0.792,4.276c-0.951,2.218-2.376,3.802-4.119,5.068c-1.742,1.109-3.96,1.901-6.178,1.901
			c-1.425,0-2.851-0.317-4.276-0.792c-2.218-0.95-3.802-2.376-5.069-4.118c-1.109-1.743-1.901-3.96-1.901-6.02
			c0-1.426,0.317-2.852,0.792-4.276c0.95-2.218,2.376-3.802,4.118-5.069c1.743-1.108,3.96-1.9,6.02-1.9
			c1.425,0,2.851,0.316,4.277,0.792L369.864,368.885l1.743-4.436c-2.535-1.108-5.227-1.584-7.92-1.584
			c-4.119,0-7.92,1.268-11.247,3.327c-3.326,2.217-6.019,5.385-7.762,9.345c-1.108,2.535-1.584,5.228-1.584,7.921
			c0,4.118,1.268,7.92,3.327,11.246c2.217,3.326,5.386,6.02,9.346,7.762c2.534,1.108,5.227,1.584,7.92,1.584
			c4.118,0,7.92-1.268,11.246-3.326c3.327-2.218,6.02-5.386,7.762-9.346c1.109-2.535,1.584-5.228,1.584-7.92
			c0-4.119-1.267-7.921-3.326-11.247c-2.218-3.326-5.386-6.019-9.346-7.762L369.864,368.885z"/>
	</g>
</g>
<g id="colorC" display="none">
	<g display="inline">
		<path fill="#00B29F" d="M357.826,213.811l1.742,4.436c1.426-0.634,2.851-0.792,4.277-0.792c2.218,0,4.277,0.633,6.019,1.9
			c1.743,1.109,3.327,2.852,4.119,5.069c0.634,1.426,0.792,2.852,0.792,4.277c0,2.218-0.634,4.277-1.901,6.019
			c-1.109,1.743-2.851,3.327-5.069,4.119c-1.425,0.634-2.851,0.792-4.277,0.792c-2.217,0-4.277-0.633-6.019-1.901
			c-1.742-1.109-3.326-2.851-4.118-5.069c-0.634-1.425-0.792-2.851-0.792-4.277c0-2.217,0.633-4.276,1.9-6.019
			c1.109-1.742,2.852-3.326,5.069-4.118L357.826,213.811l-1.743-4.435c-3.96,1.584-7.128,4.435-9.345,7.762
			c-2.218,3.326-3.327,7.286-3.327,11.246c0,2.693,0.475,5.386,1.584,7.92c1.584,3.96,4.435,7.128,7.762,9.345
			c3.326,2.218,7.286,3.327,11.246,3.327c2.693,0,5.386-0.475,7.92-1.584c3.96-1.584,7.128-4.435,9.345-7.762
			c2.218-3.326,3.327-7.287,3.327-11.247c0-2.692-0.475-5.385-1.584-7.92c-1.584-3.96-4.435-7.128-7.762-9.346
			c-3.326-2.217-7.286-3.326-11.247-3.326c-2.692,0-5.385,0.475-7.92,1.584L357.826,213.811z"/>
		<path fill="#00B29F" d="M422.136,368.885l1.742,4.436c1.426-0.634,2.852-0.792,4.277-0.792c2.218,0,4.276,0.633,6.02,1.9
			c1.742,1.108,3.326,2.852,4.118,5.069c0.634,1.425,0.792,2.851,0.792,4.276c0,2.218-0.634,4.276-1.901,6.02
			c-1.108,1.742-2.851,3.326-5.068,4.118c-1.426,0.634-2.852,0.792-4.277,0.792c-2.217,0-4.276-0.634-6.019-1.901
			c-1.743-1.108-3.327-2.851-4.118-5.068c-0.634-1.426-0.793-2.852-0.793-4.276c0-2.218,0.635-4.277,1.901-6.02
			c1.108-1.742,2.852-3.326,5.068-4.118L422.136,368.885l-1.742-4.436c-3.96,1.584-7.128,4.436-9.346,7.762
			s-3.326,7.287-3.326,11.247c0,2.692,0.476,5.385,1.584,7.92c1.584,3.96,4.435,7.128,7.762,9.346
			c3.326,2.217,7.286,3.326,11.246,3.326c2.693,0,5.386-0.476,7.92-1.584c3.96-1.584,7.128-4.436,9.346-7.762
			s3.326-7.286,3.326-11.246c0-2.693-0.475-5.386-1.584-7.921c-1.584-3.96-4.435-7.128-7.762-9.345
			c-3.326-2.218-7.286-3.327-11.246-3.327c-2.692,0-5.386,0.476-7.92,1.584L422.136,368.885z"/>
		<path fill="#00B29F" d="M426.413,367.143l-51.48-124.502c-0.95-2.376-3.801-3.644-6.177-2.535
			c-2.376,0.951-3.644,3.802-2.535,6.178l51.48,124.344c0.95,2.376,3.801,3.644,6.177,2.534
			C426.255,372.369,427.521,369.519,426.413,367.143"/>
		<path fill="#00B29F" d="M333.115,332.136l-4.435,1.742c0.633,1.426,0.792,2.852,0.792,4.277c0,2.218-0.634,4.276-1.901,6.02
			c-1.109,1.742-2.851,3.326-5.069,4.118c-1.426,0.634-2.851,0.792-4.277,0.792c-2.218,0-4.277-0.634-6.019-1.901
			c-1.743-1.108-3.327-2.851-4.119-5.068c-0.633-1.426-0.792-2.852-0.792-4.276c0-2.218,0.634-4.277,1.901-6.02
			c1.109-1.742,2.851-3.326,5.069-4.118c1.426-0.634,2.851-0.792,4.277-0.792c2.217,0,4.277,0.633,6.019,1.9
			c1.743,1.108,3.327,2.852,4.119,5.068L333.115,332.136l4.435-1.742c-1.584-3.96-4.435-7.128-7.761-9.346
			c-3.327-2.218-7.287-3.326-11.247-3.326c-2.693,0-5.386,0.476-7.92,1.584c-3.96,1.584-7.128,4.436-9.346,7.762
			s-3.327,7.286-3.327,11.246c0,2.693,0.476,5.386,1.584,7.92c1.584,3.96,4.436,7.128,7.762,9.346
			c3.327,2.218,7.287,3.326,11.247,3.326c2.693,0,5.386-0.475,7.92-1.584c3.96-1.584,7.128-4.435,9.346-7.762
			c2.217-3.326,3.326-7.286,3.326-11.246c0-2.692-0.475-5.386-1.584-7.92L333.115,332.136z"/>
		<path fill="#00B29F" d="M334.857,336.413l124.344-51.48c2.376-0.95,3.644-3.801,2.535-6.177c-0.951-2.376-3.802-3.644-6.178-2.535
			l-124.344,51.48c-2.376,0.95-3.643,3.801-2.534,6.177C329.63,336.254,332.481,337.521,334.857,336.413"/>
		<path fill="#00B29F" d="M488.188,267.826l-4.435,1.742c0.634,1.426,0.792,2.851,0.792,4.277c0,2.218-0.634,4.277-1.901,6.019
			c-1.108,1.743-2.851,3.327-5.068,4.119c-1.426,0.634-2.852,0.792-4.277,0.792c-2.217,0-4.276-0.634-6.019-1.901
			c-1.742-1.109-3.327-2.851-4.119-5.069c-0.633-1.425-0.792-2.851-0.792-4.277c0-2.217,0.634-4.277,1.901-6.019
			c1.108-1.742,2.852-3.326,5.068-4.118c1.426-0.634,2.852-0.792,4.277-0.792c2.218,0,4.276,0.633,6.019,1.9
			c1.743,1.109,3.327,2.852,4.119,5.069L488.188,267.826l4.436-1.743c-1.584-3.96-4.436-7.128-7.762-9.345
			c-3.326-2.218-7.286-3.327-11.246-3.327c-2.693,0-5.386,0.475-7.92,1.584c-3.96,1.584-7.128,4.435-9.346,7.762
			c-2.218,3.326-3.326,7.286-3.326,11.246c0,2.693,0.475,5.386,1.584,7.92c1.584,3.96,4.435,7.128,7.761,9.345
			c3.327,2.218,7.287,3.327,11.247,3.327c2.692,0,5.386-0.475,7.92-1.584c3.96-1.584,7.128-4.435,9.346-7.762
			c2.218-3.326,3.326-7.286,3.326-11.247c0-2.692-0.476-5.385-1.584-7.92L488.188,267.826z"/>
		<path fill="#FFFFFF" d="M333.115,279.864l-4.435-1.742c-0.951,2.218-2.376,3.802-4.119,5.069c-1.742,1.109-3.96,1.901-6.019,1.901
			c-1.426,0-2.851-0.317-4.277-0.792c-2.218-0.951-3.802-2.376-5.069-4.119c-1.109-1.742-1.901-3.96-1.901-6.019
			c0-1.426,0.317-2.851,0.792-4.277c0.951-2.218,2.376-3.802,4.119-5.069c1.742-1.109,3.96-1.901,6.019-1.901
			c1.426,0,2.851,0.317,4.277,0.792c2.218,0.951,3.802,2.376,5.069,4.119c1.109,1.742,1.901,3.96,1.901,6.019
			c0,1.426-0.317,2.851-0.792,4.277L333.115,279.864l4.435,1.743c1.109-2.535,1.584-5.227,1.584-7.92
			c0-4.119-1.267-7.92-3.326-11.247c-2.218-3.326-5.386-6.019-9.346-7.762c-2.534-1.109-5.227-1.584-7.92-1.584
			c-4.119,0-7.92,1.268-11.247,3.327c-3.326,2.217-6.019,5.386-7.762,9.346c-1.108,2.534-1.584,5.227-1.584,7.92
			c0,4.118,1.268,7.92,3.327,11.246c2.218,3.327,5.386,6.02,9.346,7.762c2.534,1.109,5.227,1.584,7.92,1.584
			c4.118,0,7.92-1.267,11.247-3.326c3.326-2.218,6.019-5.386,7.761-9.346L333.115,279.864z"/>
		<path fill="#FFFFFF" d="M331.214,284.299l124.344,51.48c2.376,0.95,5.227-0.158,6.178-2.534c0.95-2.376-0.159-5.228-2.535-6.178
			l-124.344-51.48c-2.376-0.951-5.227,0.158-6.177,2.534C327.729,280.498,328.838,283.349,331.214,284.299"/>
		<path fill="#FFFFFF" d="M488.188,344.175l-4.435-1.743c-0.95,2.218-2.376,3.802-4.119,5.069c-1.742,1.108-3.96,1.9-6.019,1.9
			c-1.426,0-2.852-0.316-4.277-0.792c-2.217-0.95-3.801-2.376-5.068-4.118c-1.109-1.742-1.901-3.96-1.901-6.02
			c0-1.425,0.317-2.851,0.792-4.276c0.951-2.218,2.377-3.802,4.119-5.069c1.742-1.108,3.96-1.9,6.019-1.9
			c1.426,0,2.852,0.316,4.277,0.792c2.218,0.95,3.802,2.376,5.068,4.118c1.109,1.742,1.901,3.96,1.901,6.02
			c0,1.426-0.317,2.852-0.792,4.276L488.188,344.175l4.436,1.742c1.108-2.534,1.584-5.228,1.584-7.92
			c0-4.119-1.268-7.92-3.326-11.247c-2.218-3.326-5.386-6.019-9.346-7.761c-2.534-1.109-5.228-1.584-7.92-1.584
			c-4.118,0-7.92,1.267-11.247,3.326c-3.326,2.218-6.019,5.386-7.761,9.346c-1.109,2.534-1.584,5.227-1.584,7.92
			c0,4.118,1.267,7.92,3.326,11.246c2.218,3.326,5.386,6.02,9.346,7.762c2.534,1.108,5.227,1.584,7.92,1.584
			c4.118,0,7.92-1.268,11.246-3.326c3.326-2.218,6.02-5.386,7.762-9.346L488.188,344.175z"/>
		<path fill="#00B29F" d="M434.175,213.811l-1.743,4.436c2.218,0.95,3.802,2.376,5.069,4.118c1.108,1.743,1.9,3.96,1.9,6.019
			c0,1.426-0.316,2.852-0.792,4.277c-0.95,2.218-2.376,3.802-4.118,5.069c-1.742,1.109-3.96,1.901-6.02,1.901
			c-1.425,0-2.851-0.317-4.276-0.792c-2.218-0.95-3.802-2.376-5.068-4.119c-1.109-1.742-1.901-3.96-1.901-6.019
			c0-1.425,0.317-2.851,0.792-4.277c0.95-2.217,2.376-3.801,4.118-5.069c1.742-1.108,3.96-1.9,6.02-1.9
			c1.426,0,2.852,0.316,4.276,0.792L434.175,213.811l1.742-4.435c-2.534-1.109-5.228-1.584-7.92-1.584
			c-4.119,0-7.921,1.267-11.247,3.326c-3.326,2.218-6.019,5.386-7.762,9.346c-1.108,2.535-1.584,5.228-1.584,7.92
			c0,4.119,1.268,7.92,3.327,11.247c2.218,3.327,5.386,6.019,9.345,7.762c2.535,1.109,5.228,1.584,7.921,1.584
			c4.118,0,7.92-1.267,11.246-3.327c3.326-2.217,6.02-5.385,7.762-9.345c1.108-2.535,1.584-5.228,1.584-7.92
			c0-4.118-1.268-7.92-3.326-11.246c-2.218-3.327-5.386-6.02-9.346-7.762L434.175,213.811z"/>
		<path fill="#00B29F" d="M374.299,370.785l51.48-124.344c0.95-2.376-0.158-5.227-2.534-6.177c-2.376-0.951-5.228,0.158-6.178,2.534
			l-51.48,124.344c-0.951,2.376,0.158,5.227,2.534,6.178C370.498,374.271,373.349,373.161,374.299,370.785"/>
		<path fill="#00B29F" d="M369.864,368.885l-1.742,4.436c2.218,0.95,3.802,2.376,5.069,4.118c1.109,1.742,1.901,3.96,1.901,6.02
			c0,1.425-0.317,2.851-0.792,4.276c-0.951,2.218-2.376,3.802-4.119,5.068c-1.742,1.109-3.96,1.901-6.178,1.901
			c-1.425,0-2.851-0.317-4.276-0.792c-2.218-0.95-3.802-2.376-5.069-4.118c-1.109-1.743-1.901-3.96-1.901-6.02
			c0-1.426,0.317-2.852,0.792-4.276c0.95-2.218,2.376-3.802,4.118-5.069c1.743-1.108,3.96-1.9,6.02-1.9
			c1.425,0,2.851,0.316,4.277,0.792L369.864,368.885l1.743-4.436c-2.535-1.108-5.227-1.584-7.92-1.584
			c-4.119,0-7.92,1.268-11.247,3.327c-3.326,2.217-6.019,5.385-7.762,9.345c-1.108,2.535-1.584,5.228-1.584,7.921
			c0,4.118,1.268,7.92,3.327,11.246c2.217,3.326,5.386,6.02,9.346,7.762c2.534,1.108,5.227,1.584,7.92,1.584
			c4.118,0,7.92-1.268,11.246-3.326c3.327-2.218,6.02-5.386,7.762-9.346c1.109-2.535,1.584-5.228,1.584-7.92
			c0-4.119-1.267-7.921-3.326-11.247c-2.218-3.326-5.386-6.019-9.346-7.762L369.864,368.885z"/>
	</g>
</g>
<g id="colorB" display="none">
	<g display="inline">
		<path fill="#FFFFFF" d="M357.826,213.811l1.742,4.436c1.426-0.634,2.851-0.792,4.277-0.792c2.218,0,4.277,0.633,6.019,1.9
			c1.743,1.109,3.327,2.852,4.119,5.069c0.634,1.426,0.792,2.852,0.792,4.277c0,2.218-0.634,4.277-1.901,6.019
			c-1.109,1.743-2.851,3.327-5.069,4.119c-1.425,0.634-2.851,0.792-4.277,0.792c-2.217,0-4.277-0.633-6.019-1.901
			c-1.742-1.109-3.326-2.851-4.118-5.069c-0.634-1.425-0.792-2.851-0.792-4.277c0-2.217,0.633-4.276,1.9-6.019
			c1.109-1.742,2.852-3.326,5.069-4.118L357.826,213.811l-1.743-4.435c-3.96,1.584-7.128,4.435-9.345,7.762
			c-2.218,3.326-3.327,7.286-3.327,11.246c0,2.693,0.475,5.386,1.584,7.92c1.584,3.96,4.435,7.128,7.762,9.345
			c3.326,2.218,7.286,3.327,11.246,3.327c2.693,0,5.386-0.475,7.92-1.584c3.96-1.584,7.128-4.435,9.345-7.762
			c2.218-3.326,3.327-7.287,3.327-11.247c0-2.692-0.475-5.385-1.584-7.92c-1.584-3.96-4.435-7.128-7.762-9.346
			c-3.326-2.217-7.286-3.326-11.247-3.326c-2.692,0-5.385,0.475-7.92,1.584L357.826,213.811z"/>
		<path fill="#FFFFFF" d="M422.136,368.885l1.742,4.436c1.426-0.634,2.852-0.792,4.277-0.792c2.218,0,4.276,0.633,6.02,1.9
			c1.742,1.108,3.326,2.852,4.118,5.069c0.634,1.425,0.792,2.851,0.792,4.276c0,2.218-0.634,4.276-1.901,6.02
			c-1.108,1.742-2.851,3.326-5.068,4.118c-1.426,0.634-2.852,0.792-4.277,0.792c-2.217,0-4.276-0.634-6.019-1.901
			c-1.743-1.108-3.327-2.851-4.118-5.068c-0.634-1.426-0.793-2.852-0.793-4.276c0-2.218,0.635-4.277,1.901-6.02
			c1.108-1.742,2.852-3.326,5.068-4.118L422.136,368.885l-1.742-4.436c-3.96,1.584-7.128,4.436-9.346,7.762
			s-3.326,7.287-3.326,11.247c0,2.692,0.476,5.385,1.584,7.92c1.584,3.96,4.435,7.128,7.762,9.346
			c3.326,2.217,7.286,3.326,11.246,3.326c2.693,0,5.386-0.476,7.92-1.584c3.96-1.584,7.128-4.436,9.346-7.762
			s3.326-7.286,3.326-11.246c0-2.693-0.475-5.386-1.584-7.921c-1.584-3.96-4.435-7.128-7.762-9.345
			c-3.326-2.218-7.286-3.327-11.246-3.327c-2.692,0-5.386,0.476-7.92,1.584L422.136,368.885z"/>
		<path fill="#FFFFFF" d="M426.413,367.143l-51.48-124.502c-0.95-2.376-3.801-3.644-6.177-2.535
			c-2.376,0.951-3.644,3.802-2.535,6.178l51.48,124.344c0.95,2.376,3.801,3.644,6.177,2.534
			C426.255,372.369,427.521,369.519,426.413,367.143"/>
		<path fill="#FFFFFF" d="M333.115,332.136l-4.435,1.742c0.633,1.426,0.792,2.852,0.792,4.277c0,2.218-0.634,4.276-1.901,6.02
			c-1.109,1.742-2.851,3.326-5.069,4.118c-1.426,0.634-2.851,0.792-4.277,0.792c-2.218,0-4.277-0.634-6.019-1.901
			c-1.743-1.108-3.327-2.851-4.119-5.068c-0.633-1.426-0.792-2.852-0.792-4.276c0-2.218,0.634-4.277,1.901-6.02
			c1.109-1.742,2.851-3.326,5.069-4.118c1.426-0.634,2.851-0.792,4.277-0.792c2.217,0,4.277,0.633,6.019,1.9
			c1.743,1.108,3.327,2.852,4.119,5.068L333.115,332.136l4.435-1.742c-1.584-3.96-4.435-7.128-7.761-9.346
			c-3.327-2.218-7.287-3.326-11.247-3.326c-2.693,0-5.386,0.476-7.92,1.584c-3.96,1.584-7.128,4.436-9.346,7.762
			s-3.327,7.286-3.327,11.246c0,2.693,0.476,5.386,1.584,7.92c1.584,3.96,4.436,7.128,7.762,9.346
			c3.327,2.218,7.287,3.326,11.247,3.326c2.693,0,5.386-0.475,7.92-1.584c3.96-1.584,7.128-4.435,9.346-7.762
			c2.217-3.326,3.326-7.286,3.326-11.246c0-2.692-0.475-5.386-1.584-7.92L333.115,332.136z"/>
		<path fill="#FFFFFF" d="M334.857,336.413l124.344-51.48c2.376-0.95,3.644-3.801,2.535-6.177c-0.951-2.376-3.802-3.644-6.178-2.535
			l-124.344,51.48c-2.376,0.95-3.643,3.801-2.534,6.177C329.63,336.254,332.481,337.521,334.857,336.413"/>
		<path fill="#FFFFFF" d="M488.188,267.826l-4.435,1.742c0.634,1.426,0.792,2.851,0.792,4.277c0,2.218-0.634,4.277-1.901,6.019
			c-1.108,1.743-2.851,3.327-5.068,4.119c-1.426,0.634-2.852,0.792-4.277,0.792c-2.217,0-4.276-0.634-6.019-1.901
			c-1.742-1.109-3.327-2.851-4.119-5.069c-0.633-1.425-0.792-2.851-0.792-4.277c0-2.217,0.634-4.277,1.901-6.019
			c1.108-1.742,2.852-3.326,5.068-4.118c1.426-0.634,2.852-0.792,4.277-0.792c2.218,0,4.276,0.633,6.019,1.9
			c1.743,1.109,3.327,2.852,4.119,5.069L488.188,267.826l4.436-1.743c-1.584-3.96-4.436-7.128-7.762-9.345
			c-3.326-2.218-7.286-3.327-11.246-3.327c-2.693,0-5.386,0.475-7.92,1.584c-3.96,1.584-7.128,4.435-9.346,7.762
			c-2.218,3.326-3.326,7.286-3.326,11.246c0,2.693,0.475,5.386,1.584,7.92c1.584,3.96,4.435,7.128,7.761,9.345
			c3.327,2.218,7.287,3.327,11.247,3.327c2.692,0,5.386-0.475,7.92-1.584c3.96-1.584,7.128-4.435,9.346-7.762
			c2.218-3.326,3.326-7.286,3.326-11.247c0-2.692-0.476-5.385-1.584-7.92L488.188,267.826z"/>
		<path fill="#FFFFFF" d="M333.115,279.864l-4.435-1.742c-0.951,2.218-2.376,3.802-4.119,5.069c-1.742,1.109-3.96,1.901-6.019,1.901
			c-1.426,0-2.851-0.317-4.277-0.792c-2.218-0.951-3.802-2.376-5.069-4.119c-1.109-1.742-1.901-3.96-1.901-6.019
			c0-1.426,0.317-2.851,0.792-4.277c0.951-2.218,2.376-3.802,4.119-5.069c1.742-1.109,3.96-1.901,6.019-1.901
			c1.426,0,2.851,0.317,4.277,0.792c2.218,0.951,3.802,2.376,5.069,4.119c1.109,1.742,1.901,3.96,1.901,6.019
			c0,1.426-0.317,2.851-0.792,4.277L333.115,279.864l4.435,1.743c1.109-2.535,1.584-5.227,1.584-7.92
			c0-4.119-1.267-7.92-3.326-11.247c-2.218-3.326-5.386-6.019-9.346-7.762c-2.534-1.109-5.227-1.584-7.92-1.584
			c-4.119,0-7.92,1.268-11.247,3.327c-3.326,2.217-6.019,5.386-7.762,9.346c-1.108,2.534-1.584,5.227-1.584,7.92
			c0,4.118,1.268,7.92,3.327,11.246c2.218,3.327,5.386,6.02,9.346,7.762c2.534,1.109,5.227,1.584,7.92,1.584
			c4.118,0,7.92-1.267,11.247-3.326c3.326-2.218,6.019-5.386,7.761-9.346L333.115,279.864z"/>
		<path fill="#FFFFFF" d="M331.214,284.299l124.344,51.48c2.376,0.95,5.227-0.158,6.178-2.534c0.95-2.376-0.159-5.228-2.535-6.178
			l-124.344-51.48c-2.376-0.951-5.227,0.158-6.177,2.534C327.729,280.498,328.838,283.349,331.214,284.299"/>
		<path fill="#FFFFFF" d="M488.188,344.175l-4.435-1.743c-0.95,2.218-2.376,3.802-4.119,5.069c-1.742,1.108-3.96,1.9-6.019,1.9
			c-1.426,0-2.852-0.316-4.277-0.792c-2.217-0.95-3.801-2.376-5.068-4.118c-1.109-1.742-1.901-3.96-1.901-6.02
			c0-1.425,0.317-2.851,0.792-4.276c0.951-2.218,2.377-3.802,4.119-5.069c1.742-1.108,3.96-1.9,6.019-1.9
			c1.426,0,2.852,0.316,4.277,0.792c2.218,0.95,3.802,2.376,5.068,4.118c1.109,1.742,1.901,3.96,1.901,6.02
			c0,1.426-0.317,2.852-0.792,4.276L488.188,344.175l4.436,1.742c1.108-2.534,1.584-5.228,1.584-7.92
			c0-4.119-1.268-7.92-3.326-11.247c-2.218-3.326-5.386-6.019-9.346-7.761c-2.534-1.109-5.228-1.584-7.92-1.584
			c-4.118,0-7.92,1.267-11.247,3.326c-3.326,2.218-6.019,5.386-7.761,9.346c-1.109,2.534-1.584,5.227-1.584,7.92
			c0,4.118,1.267,7.92,3.326,11.246c2.218,3.326,5.386,6.02,9.346,7.762c2.534,1.108,5.227,1.584,7.92,1.584
			c4.118,0,7.92-1.268,11.246-3.326c3.326-2.218,6.02-5.386,7.762-9.346L488.188,344.175z"/>
		<path fill="#FFFFFF" d="M434.175,213.811l-1.743,4.436c2.218,0.95,3.802,2.376,5.069,4.118c1.108,1.743,1.9,3.96,1.9,6.019
			c0,1.426-0.316,2.852-0.792,4.277c-0.95,2.218-2.376,3.802-4.118,5.069c-1.742,1.109-3.96,1.901-6.02,1.901
			c-1.425,0-2.851-0.317-4.276-0.792c-2.218-0.95-3.802-2.376-5.068-4.119c-1.109-1.742-1.901-3.96-1.901-6.019
			c0-1.425,0.317-2.851,0.792-4.277c0.95-2.217,2.376-3.801,4.118-5.069c1.742-1.108,3.96-1.9,6.02-1.9
			c1.426,0,2.852,0.316,4.276,0.792L434.175,213.811l1.742-4.435c-2.534-1.109-5.228-1.584-7.92-1.584
			c-4.119,0-7.921,1.267-11.247,3.326c-3.326,2.218-6.019,5.386-7.762,9.346c-1.108,2.535-1.584,5.228-1.584,7.92
			c0,4.119,1.268,7.92,3.327,11.247c2.218,3.327,5.386,6.019,9.345,7.762c2.535,1.109,5.228,1.584,7.921,1.584
			c4.118,0,7.92-1.267,11.246-3.327c3.326-2.217,6.02-5.385,7.762-9.345c1.108-2.535,1.584-5.228,1.584-7.92
			c0-4.118-1.268-7.92-3.326-11.246c-2.218-3.327-5.386-6.02-9.346-7.762L434.175,213.811z"/>
		<path fill="#FFFFFF" d="M374.299,370.785l51.48-124.344c0.95-2.376-0.158-5.227-2.534-6.177c-2.376-0.951-5.228,0.158-6.178,2.534
			l-51.48,124.344c-0.951,2.376,0.158,5.227,2.534,6.178C370.498,374.271,373.349,373.161,374.299,370.785"/>
		<path fill="#FFFFFF" d="M369.864,368.885l-1.742,4.436c2.218,0.95,3.802,2.376,5.069,4.118c1.109,1.742,1.901,3.96,1.901,6.02
			c0,1.425-0.317,2.851-0.792,4.276c-0.951,2.218-2.376,3.802-4.119,5.068c-1.742,1.109-3.96,1.901-6.178,1.901
			c-1.425,0-2.851-0.317-4.276-0.792c-2.218-0.95-3.802-2.376-5.069-4.118c-1.109-1.743-1.901-3.96-1.901-6.02
			c0-1.426,0.317-2.852,0.792-4.276c0.95-2.218,2.376-3.802,4.118-5.069c1.743-1.108,3.96-1.9,6.02-1.9
			c1.425,0,2.851,0.316,4.277,0.792L369.864,368.885l1.743-4.436c-2.535-1.108-5.227-1.584-7.92-1.584
			c-4.119,0-7.92,1.268-11.247,3.327c-3.326,2.217-6.019,5.385-7.762,9.345c-1.108,2.535-1.584,5.228-1.584,7.921
			c0,4.118,1.268,7.92,3.327,11.246c2.217,3.326,5.386,6.02,9.346,7.762c2.534,1.108,5.227,1.584,7.92,1.584
			c4.118,0,7.92-1.268,11.246-3.326c3.327-2.218,6.02-5.386,7.762-9.346c1.109-2.535,1.584-5.228,1.584-7.92
			c0-4.119-1.267-7.921-3.326-11.247c-2.218-3.326-5.386-6.019-9.346-7.762L369.864,368.885z"/>
	</g>
</g>
<g id="colorA">
	<g>
		<path fill="#23325A" d="M357.826,213.811l1.742,4.436c1.426-0.634,2.851-0.792,4.277-0.792c2.218,0,4.277,0.633,6.019,1.9
			c1.743,1.109,3.327,2.852,4.119,5.069c0.634,1.426,0.792,2.852,0.792,4.277c0,2.218-0.634,4.277-1.901,6.019
			c-1.109,1.743-2.851,3.327-5.069,4.119c-1.425,0.634-2.851,0.792-4.277,0.792c-2.217,0-4.277-0.633-6.019-1.901
			c-1.742-1.109-3.326-2.851-4.118-5.069c-0.634-1.425-0.792-2.851-0.792-4.277c0-2.217,0.633-4.276,1.9-6.019
			c1.109-1.742,2.852-3.326,5.069-4.118L357.826,213.811l-1.743-4.435c-3.96,1.584-7.128,4.435-9.345,7.762
			c-2.218,3.326-3.327,7.286-3.327,11.246c0,2.693,0.475,5.386,1.584,7.92c1.584,3.96,4.435,7.128,7.762,9.345
			c3.326,2.218,7.286,3.327,11.246,3.327c2.693,0,5.386-0.475,7.92-1.584c3.96-1.584,7.128-4.435,9.345-7.762
			c2.218-3.326,3.327-7.287,3.327-11.247c0-2.692-0.475-5.385-1.584-7.92c-1.584-3.96-4.435-7.128-7.762-9.346
			c-3.326-2.217-7.286-3.326-11.247-3.326c-2.692,0-5.385,0.475-7.92,1.584L357.826,213.811z"/>
		<path fill="#23325A" d="M422.136,368.885l1.742,4.436c1.426-0.634,2.852-0.792,4.277-0.792c2.218,0,4.276,0.633,6.02,1.9
			c1.742,1.108,3.326,2.852,4.118,5.069c0.634,1.425,0.792,2.851,0.792,4.276c0,2.218-0.634,4.276-1.901,6.02
			c-1.108,1.742-2.851,3.326-5.068,4.118c-1.426,0.634-2.852,0.792-4.277,0.792c-2.217,0-4.276-0.634-6.019-1.901
			c-1.743-1.108-3.327-2.851-4.118-5.068c-0.634-1.426-0.793-2.852-0.793-4.276c0-2.218,0.635-4.277,1.901-6.02
			c1.108-1.742,2.852-3.326,5.068-4.118L422.136,368.885l-1.742-4.436c-3.96,1.584-7.128,4.436-9.346,7.762
			s-3.326,7.287-3.326,11.247c0,2.692,0.476,5.385,1.584,7.92c1.584,3.96,4.435,7.128,7.762,9.346
			c3.326,2.217,7.286,3.326,11.246,3.326c2.693,0,5.386-0.476,7.92-1.584c3.96-1.584,7.128-4.436,9.346-7.762
			s3.326-7.286,3.326-11.246c0-2.693-0.475-5.386-1.584-7.921c-1.584-3.96-4.435-7.128-7.762-9.345
			c-3.326-2.218-7.286-3.327-11.246-3.327c-2.692,0-5.386,0.476-7.92,1.584L422.136,368.885z"/>
		<path fill="#23325A" d="M426.413,367.143l-51.48-124.502c-0.95-2.376-3.801-3.644-6.177-2.535
			c-2.376,0.951-3.644,3.802-2.535,6.178l51.48,124.344c0.95,2.376,3.801,3.644,6.177,2.534
			C426.255,372.369,427.521,369.519,426.413,367.143"/>
		<path fill="#23325A" d="M333.115,332.136l-4.435,1.742c0.633,1.426,0.792,2.852,0.792,4.277c0,2.218-0.634,4.276-1.901,6.02
			c-1.109,1.742-2.851,3.326-5.069,4.118c-1.426,0.634-2.851,0.792-4.277,0.792c-2.218,0-4.277-0.634-6.019-1.901
			c-1.743-1.108-3.327-2.851-4.119-5.068c-0.633-1.426-0.792-2.852-0.792-4.276c0-2.218,0.634-4.277,1.901-6.02
			c1.109-1.742,2.851-3.326,5.069-4.118c1.426-0.634,2.851-0.792,4.277-0.792c2.217,0,4.277,0.633,6.019,1.9
			c1.743,1.108,3.327,2.852,4.119,5.068L333.115,332.136l4.435-1.742c-1.584-3.96-4.435-7.128-7.761-9.346
			c-3.327-2.218-7.287-3.326-11.247-3.326c-2.693,0-5.386,0.476-7.92,1.584c-3.96,1.584-7.128,4.436-9.346,7.762
			s-3.327,7.286-3.327,11.246c0,2.693,0.476,5.386,1.584,7.92c1.584,3.96,4.436,7.128,7.762,9.346
			c3.327,2.218,7.287,3.326,11.247,3.326c2.693,0,5.386-0.475,7.92-1.584c3.96-1.584,7.128-4.435,9.346-7.762
			c2.217-3.326,3.326-7.286,3.326-11.246c0-2.692-0.475-5.386-1.584-7.92L333.115,332.136z"/>
		<path fill="#23325A" d="M334.857,336.413l124.344-51.48c2.376-0.95,3.644-3.801,2.535-6.177c-0.951-2.376-3.802-3.644-6.178-2.535
			l-124.344,51.48c-2.376,0.95-3.643,3.801-2.534,6.177C329.63,336.254,332.481,337.521,334.857,336.413"/>
		<path fill="#23325A" d="M488.188,267.826l-4.435,1.742c0.634,1.426,0.792,2.851,0.792,4.277c0,2.218-0.634,4.277-1.901,6.019
			c-1.108,1.743-2.851,3.327-5.068,4.119c-1.426,0.634-2.852,0.792-4.277,0.792c-2.217,0-4.276-0.634-6.019-1.901
			c-1.742-1.109-3.327-2.851-4.119-5.069c-0.633-1.425-0.792-2.851-0.792-4.277c0-2.217,0.634-4.277,1.901-6.019
			c1.108-1.742,2.852-3.326,5.068-4.118c1.426-0.634,2.852-0.792,4.277-0.792c2.218,0,4.276,0.633,6.019,1.9
			c1.743,1.109,3.327,2.852,4.119,5.069L488.188,267.826l4.436-1.743c-1.584-3.96-4.436-7.128-7.762-9.345
			c-3.326-2.218-7.286-3.327-11.246-3.327c-2.693,0-5.386,0.475-7.92,1.584c-3.96,1.584-7.128,4.435-9.346,7.762
			c-2.218,3.326-3.326,7.286-3.326,11.246c0,2.693,0.475,5.386,1.584,7.92c1.584,3.96,4.435,7.128,7.761,9.345
			c3.327,2.218,7.287,3.327,11.247,3.327c2.692,0,5.386-0.475,7.92-1.584c3.96-1.584,7.128-4.435,9.346-7.762
			c2.218-3.326,3.326-7.286,3.326-11.247c0-2.692-0.476-5.385-1.584-7.92L488.188,267.826z"/>
		<path fill="#28D1B4" d="M333.115,279.864l-4.435-1.742c-0.951,2.218-2.376,3.802-4.119,5.069c-1.742,1.109-3.96,1.901-6.019,1.901
			c-1.426,0-2.851-0.317-4.277-0.792c-2.218-0.951-3.802-2.376-5.069-4.119c-1.109-1.742-1.901-3.96-1.901-6.019
			c0-1.426,0.317-2.851,0.792-4.277c0.951-2.218,2.376-3.802,4.119-5.069c1.742-1.109,3.96-1.901,6.019-1.901
			c1.426,0,2.851,0.317,4.277,0.792c2.218,0.951,3.802,2.376,5.069,4.119c1.109,1.742,1.901,3.96,1.901,6.019
			c0,1.426-0.317,2.851-0.792,4.277L333.115,279.864l4.435,1.743c1.109-2.535,1.584-5.227,1.584-7.92
			c0-4.119-1.267-7.92-3.326-11.247c-2.218-3.326-5.386-6.019-9.346-7.762c-2.534-1.109-5.227-1.584-7.92-1.584
			c-4.119,0-7.92,1.268-11.247,3.327c-3.326,2.217-6.019,5.386-7.762,9.346c-1.108,2.534-1.584,5.227-1.584,7.92
			c0,4.118,1.268,7.92,3.327,11.246c2.218,3.327,5.386,6.02,9.346,7.762c2.534,1.109,5.227,1.584,7.92,1.584
			c4.118,0,7.92-1.267,11.247-3.326c3.326-2.218,6.019-5.386,7.761-9.346L333.115,279.864z"/>
		<path fill="#28D1B4" d="M331.214,284.299l124.344,51.48c2.376,0.95,5.227-0.158,6.178-2.534c0.95-2.376-0.159-5.228-2.535-6.178
			l-124.344-51.48c-2.376-0.951-5.227,0.158-6.177,2.534C327.729,280.498,328.838,283.349,331.214,284.299"/>
		<path fill="#28D1B4" d="M488.188,344.175l-4.435-1.743c-0.95,2.218-2.376,3.802-4.119,5.069c-1.742,1.108-3.96,1.9-6.019,1.9
			c-1.426,0-2.852-0.316-4.277-0.792c-2.217-0.95-3.801-2.376-5.068-4.118c-1.109-1.742-1.901-3.96-1.901-6.02
			c0-1.425,0.317-2.851,0.792-4.276c0.951-2.218,2.377-3.802,4.119-5.069c1.742-1.108,3.96-1.9,6.019-1.9
			c1.426,0,2.852,0.316,4.277,0.792c2.218,0.95,3.802,2.376,5.068,4.118c1.109,1.742,1.901,3.96,1.901,6.02
			c0,1.426-0.317,2.852-0.792,4.276L488.188,344.175l4.436,1.742c1.108-2.534,1.584-5.228,1.584-7.92
			c0-4.119-1.268-7.92-3.326-11.247c-2.218-3.326-5.386-6.019-9.346-7.761c-2.534-1.109-5.228-1.584-7.92-1.584
			c-4.118,0-7.92,1.267-11.247,3.326c-3.326,2.218-6.019,5.386-7.761,9.346c-1.109,2.534-1.584,5.227-1.584,7.92
			c0,4.118,1.267,7.92,3.326,11.246c2.218,3.326,5.386,6.02,9.346,7.762c2.534,1.108,5.227,1.584,7.92,1.584
			c4.118,0,7.92-1.268,11.246-3.326c3.326-2.218,6.02-5.386,7.762-9.346L488.188,344.175z"/>
		<path fill="#23325A" d="M434.175,213.811l-1.743,4.436c2.218,0.95,3.802,2.376,5.069,4.118c1.108,1.743,1.9,3.96,1.9,6.019
			c0,1.426-0.316,2.852-0.792,4.277c-0.95,2.218-2.376,3.802-4.118,5.069c-1.742,1.109-3.96,1.901-6.02,1.901
			c-1.425,0-2.851-0.317-4.276-0.792c-2.218-0.95-3.802-2.376-5.068-4.119c-1.109-1.742-1.901-3.96-1.901-6.019
			c0-1.425,0.317-2.851,0.792-4.277c0.95-2.217,2.376-3.801,4.118-5.069c1.742-1.108,3.96-1.9,6.02-1.9
			c1.426,0,2.852,0.316,4.276,0.792L434.175,213.811l1.742-4.435c-2.534-1.109-5.228-1.584-7.92-1.584
			c-4.119,0-7.921,1.267-11.247,3.326c-3.326,2.218-6.019,5.386-7.762,9.346c-1.108,2.535-1.584,5.228-1.584,7.92
			c0,4.119,1.268,7.92,3.327,11.247c2.218,3.327,5.386,6.019,9.345,7.762c2.535,1.109,5.228,1.584,7.921,1.584
			c4.118,0,7.92-1.267,11.246-3.327c3.326-2.217,6.02-5.385,7.762-9.345c1.108-2.535,1.584-5.228,1.584-7.92
			c0-4.118-1.268-7.92-3.326-11.246c-2.218-3.327-5.386-6.02-9.346-7.762L434.175,213.811z"/>
		<path fill="#23325A" d="M374.299,370.785l51.48-124.344c0.95-2.376-0.158-5.227-2.534-6.177c-2.376-0.951-5.228,0.158-6.178,2.534
			l-51.48,124.344c-0.951,2.376,0.158,5.227,2.534,6.178C370.498,374.271,373.349,373.161,374.299,370.785"/>
		<path fill="#23325A" d="M369.864,368.885l-1.742,4.436c2.218,0.95,3.802,2.376,5.069,4.118c1.109,1.742,1.901,3.96,1.901,6.02
			c0,1.425-0.317,2.851-0.792,4.276c-0.951,2.218-2.376,3.802-4.119,5.068c-1.742,1.109-3.96,1.901-6.178,1.901
			c-1.425,0-2.851-0.317-4.276-0.792c-2.218-0.95-3.802-2.376-5.069-4.118c-1.109-1.743-1.901-3.96-1.901-6.02
			c0-1.426,0.317-2.852,0.792-4.276c0.95-2.218,2.376-3.802,4.118-5.069c1.743-1.108,3.96-1.9,6.02-1.9
			c1.425,0,2.851,0.316,4.277,0.792L369.864,368.885l1.743-4.436c-2.535-1.108-5.227-1.584-7.92-1.584
			c-4.119,0-7.92,1.268-11.247,3.327c-3.326,2.217-6.019,5.385-7.762,9.345c-1.108,2.535-1.584,5.228-1.584,7.921
			c0,4.118,1.268,7.92,3.327,11.246c2.217,3.326,5.386,6.02,9.346,7.762c2.534,1.108,5.227,1.584,7.92,1.584
			c4.118,0,7.92-1.268,11.246-3.326c3.327-2.218,6.02-5.386,7.762-9.346c1.109-2.535,1.584-5.228,1.584-7.92
			c0-4.119-1.267-7.921-3.326-11.247c-2.218-3.326-5.386-6.019-9.346-7.762L369.864,368.885z"/>
	</g>
</g>
</svg>
